<svg t="1686292021260" class="icon" viewBox="0 0 1024 1024" version="1.1" xmlns="http://www.w3.org/2000/svg" p-id="7018" width="32" height="32"><path d="M582.954667 440.725333H920.96c-11.584-181.12-156.906667-326.464-338.026667-338.048v338.048z m407.296 70.101334H512.853333V33.429333l37.632-1.194666c3.029333-0.213333 6.037333-0.405333 9.088-0.405334 238.357333 0 432.256 193.92 432.256 432.256 0 3.072-0.192 6.08-0.384 9.088l-1.194666 37.653334zM442.752 1013.162667C204.416 1013.162667 10.496 819.242667 10.496 580.906667c0-235.178667 184.32-424.768 419.541333-431.616l36.074667-1.109334v409.365334h409.344l-1.066667 36.096c-6.826667 235.242667-196.437333 419.52-431.637333 419.52z m-46.72-791.04C215.210667 244.650667 79.765333 398.72 80.597333 580.906667c0 199.701333 162.453333 362.154667 362.154667 362.154666 184.810667 0 336.042667-135.893333 358.762667-315.413333H396.032V222.144z" fill="#D6D6D6" p-id="7019"></path></svg>