<svg t="1686208825934" class="icon" viewBox="0 0 1025 1024" version="1.1" xmlns="http://www.w3.org/2000/svg" p-id="2437" width="32" height="32"><path d="M1024.02048 576l0-64-193.29024 0c-5.85728-72.68352-31.78496-139.01824-71.68-192.24576l161.93536 0 70.06208-280.24832-62.09536-15.52384-57.93792 231.75168-174.67392 0c-0.90112-0.69632-1.80224-1.37216-2.70336-2.048 6.71744-19.49696 10.36288-40.42752 10.36288-62.19776 0-105.75872-85.95456-191.488-192-191.488s-192 85.72928-192 191.50848c0 21.77024 3.64544 42.7008 10.36288 62.19776-0.90112 0.67584-1.80224 1.37216-2.70336 2.048l-174.67392 0-57.93792-231.75168-62.09536 15.52384 70.06208 280.24832 161.93536 0c-39.87456 53.22752-65.80224 119.56224-71.65952 192.24576l-193.29024 0 0 64 193.37216 0c3.80928 45.6704 15.50336 88.82176 33.62816 127.75424l-123.98592 0-70.06208 280.22784 62.09536 15.52384 57.93792-231.77216 112.35328 0c58.69568 78.0288 147.39456 127.75424 246.66112 127.75424s187.96544-49.72544 246.66112-127.75424l112.35328 0 57.93792 231.77216 62.09536-15.52384-70.06208-280.22784-123.98592 0c18.1248-38.93248 29.83936-82.08384 33.62816-127.75424l193.37216 0z" fill="#626aef" p-id="2438"></path></svg>